<mxfile host="app.diagrams.net" modified="2024-02-14T09:05:52.538Z" agent="Mozilla/5.0 (X11; Linux x86_64) AppleWebKit/537.36 (KHTML, like Gecko) Chrome/121.0.0.0 Safari/537.36" etag="w2rWdCG8p3mz3eyySyKm" version="23.1.4" type="github">
  <diagram name="Page-1" id="R3aml3O4Dls4apym4EOA">
    <mxGraphModel dx="1382" dy="799" grid="1" gridSize="10" guides="1" tooltips="1" connect="1" arrows="1" fold="1" page="1" pageScale="1" pageWidth="850" pageHeight="1100" math="0" shadow="0">
      <root>
        <mxCell id="0" />
        <mxCell id="1" parent="0" />
        <mxCell id="cb4dcpJ6cjyGk0dDfuys-3" value="" style="edgeStyle=orthogonalEdgeStyle;rounded=0;orthogonalLoop=1;jettySize=auto;html=1;" edge="1" parent="1" source="cb4dcpJ6cjyGk0dDfuys-1" target="cb4dcpJ6cjyGk0dDfuys-2">
          <mxGeometry relative="1" as="geometry" />
        </mxCell>
        <mxCell id="cb4dcpJ6cjyGk0dDfuys-1" value="" style="ellipse;whiteSpace=wrap;html=1;" vertex="1" parent="1">
          <mxGeometry x="110" y="260" width="120" height="80" as="geometry" />
        </mxCell>
        <mxCell id="cb4dcpJ6cjyGk0dDfuys-2" value="" style="shape=waypoint;sketch=0;size=6;pointerEvents=1;points=[];fillColor=default;resizable=0;rotatable=0;perimeter=centerPerimeter;snapToPoint=1;" vertex="1" parent="1">
          <mxGeometry x="360" y="290" width="20" height="20" as="geometry" />
        </mxCell>
      </root>
    </mxGraphModel>
  </diagram>
</mxfile>
